<svg id="背景" xmlns="http://www.w3.org/2000/svg" xmlns:xlink="http://www.w3.org/1999/xlink" viewBox="0 0 2560 1600"><defs><style>.cls-1{fill:#fcab92;}.cls-2{fill:url(#未命名漸層_1150);}.cls-3{fill:#fff276;}.cls-4{fill:url(#未命名漸層_317);}.cls-5{fill:url(#未命名漸層_317-2);}.cls-6{fill:#fffbde;}.cls-7{fill:url(#未命名漸層_942);}.cls-8{fill:url(#未命名漸層_116);}.cls-9{fill:url(#未命名漸層_64);}.cls-10{fill:url(#未命名漸層_17);}.cls-11{fill:#fff;}.cls-12{fill:url(#未命名漸層_170);}.cls-13{fill:#d3d3d3;}.cls-14{fill:url(#未命名漸層_21);}.cls-15{fill:none;stroke:#fff;stroke-miterlimit:10;stroke-width:3px;}</style><radialGradient id="未命名漸層_1150" cx="391.62" cy="-1014.37" r="1393.63" gradientUnits="userSpaceOnUse"><stop offset="0.05" stop-opacity="0"/><stop offset="0.35" stop-opacity="0"/><stop offset="0.4" stop-opacity="0"/><stop offset="0.76" stop-opacity="0"/><stop offset="0.81" stop-opacity="0"/><stop offset="1" stop-opacity="0.3"/></radialGradient><linearGradient id="未命名漸層_317" x1="1544.02" y1="69.95" x2="1290.46" y2="953.15" gradientUnits="userSpaceOnUse"><stop offset="0.05" stop-opacity="0"/><stop offset="0.29" stop-opacity="0"/><stop offset="0.9" stop-opacity="0.18"/><stop offset="1" stop-opacity="0.3"/></linearGradient><linearGradient id="未命名漸層_317-2" x1="991.4" y1="-47.91" x2="1246.26" y2="747.57" xlink:href="#未命名漸層_317"/><radialGradient id="未命名漸層_942" cx="448.13" cy="-1046.51" r="1410.83" gradientUnits="userSpaceOnUse"><stop offset="0.05" stop-opacity="0"/><stop offset="0.35" stop-opacity="0"/><stop offset="0.4" stop-opacity="0"/><stop offset="0.84" stop-opacity="0"/><stop offset="0.91" stop-opacity="0"/><stop offset="0.99" stop-opacity="0.19"/><stop offset="1" stop-opacity="0.3"/></radialGradient><linearGradient id="未命名漸層_116" x1="1517.3" y1="826.48" x2="1206.79" y2="1317.29" gradientUnits="userSpaceOnUse"><stop offset="0.29" stop-opacity="0"/><stop offset="0.99" stop-opacity="0.29"/><stop offset="1" stop-opacity="0.3"/></linearGradient><linearGradient id="未命名漸層_64" x1="1103.47" y1="336.69" x2="1352.77" y2="979.25" gradientUnits="userSpaceOnUse"><stop offset="0.29" stop-opacity="0"/><stop offset="1" stop-opacity="0.3"/></linearGradient><linearGradient id="未命名漸層_17" x1="1854.32" y1="427.16" x2="1957.75" y2="939.62" gradientUnits="userSpaceOnUse"><stop offset="0.29" stop-opacity="0"/><stop offset="0.92" stop-opacity="0.21"/><stop offset="1" stop-opacity="0.3"/></linearGradient><linearGradient id="未命名漸層_170" x1="2447.17" y1="781.73" x2="2075.22" y2="1386.5" gradientUnits="userSpaceOnUse"><stop offset="0.29" stop-opacity="0"/><stop offset="0.94" stop-opacity="0.48"/><stop offset="1" stop-opacity="0.6"/></linearGradient><linearGradient id="未命名漸層_21" x1="1261.16" y1="680.61" x2="1261.16" y2="1758.24" gradientUnits="userSpaceOnUse"><stop offset="0" stop-opacity="0"/><stop offset="1" stop-opacity="0.6"/></linearGradient></defs><title>bg_3</title><rect class="cls-1" x="-0.5" y="-0.5" width="2560" height="1600"/><rect class="cls-2" x="-0.5" y="-0.5" width="2560" height="1600"/><path class="cls-3" d="M1394.77-42.94C1228.86-8.79,1073.09,61.77,917.71,129.21S603.6,262.08,435.76,285s-348.13-.9-486.1-99.16L-59.5,1754.5h2681V-42.5Z"/><path id="左" class="cls-4" d="M1394.77-42.94C1228.86-8.79,1073.09,61.77,917.71,129.21S603.6,262.08,435.76,285s-348.13-.9-486.1-99.16L-59.5,1754.5h2681V-42.5Z"/><path id="右" class="cls-5" d="M1394.77-42.94C1228.86-8.79,1073.09,61.77,917.71,129.21S603.6,262.08,435.76,285s-348.13-.9-486.1-99.16L-59.5,1754.5h2681V-42.5Z"/><path class="cls-6" d="M2635,1768H-73.08l9.39-1608.27,21.18,15.09C21.56,220.44,97.75,251.64,184,267.55c78.87,14.55,163,15.91,250,4,164-22.36,319.88-86,478.39-154.77Q928,110,943.76,103.16C1087.41,40.63,1236-24,1392.05-56.17l1.35-.27L2635-56ZM-45.92,1741H2608V-28.89l-1129.73-.43c-28.32,0-57.2.06-84.14,8.83-26.68,8.69-49.88,25.39-72.91,41.43C1123.8,158.42,901.71,265.11,664.86,307.26,447.55,345.94,216.56,328,14.08,236.83-2.28,229.46-19,218.39-36,213.35c-6.74,28.09-1.4,64.23-1.57,93.4l-.56,95.62L-39.22,593.6l-2.24,382.47Z"/><path class="cls-7" d="M2635,1768H-73.08l9.39-1608.27,21.18,15.09C21.56,220.44,97.75,251.64,184,267.55c78.87,14.55,163,15.91,250,4,164-22.36,319.88-86,478.39-154.77Q928,110,943.76,103.16C1087.41,40.63,1236-24,1392.05-56.17l1.35-.27L2635-56ZM-45.92,1741H2608V-28.89l-1129.73-.43c-28.32,0-57.2.06-84.14,8.83-26.68,8.69-49.88,25.39-72.91,41.43C1123.8,158.42,901.71,265.11,664.86,307.26,447.55,345.94,216.56,328,14.08,236.83-2.28,229.46-19,218.39-36,213.35c-6.74,28.09-1.4,64.23-1.57,93.4l-.56,95.62L-39.22,593.6l-2.24,382.47Z"/><path class="cls-6" d="M2529.93-68.25l-7.2,0c-27.26,110.5-62.82,232.58-160.93,290.28-64.52,37.94-144.54,39.52-218.21,26.29s-144.27-40-217.5-55.44a729.89,729.89,0,0,0-288.16-2.59c-67.85,13.08-135.38,36.76-188.25,81.24-54.78,46.08-89.9,110.83-136.08,165.52-55.39,65.58-132,118.51-217.7,124.06-96.27,6.24-184.94-46.54-271.08-90-108-54.45-224-97-344.58-105.52C379.59,358.54,275.11,377,188.1,426.78a405.78,405.78,0,0,0-49.61,33.4C48,531.47-6.9,637.46-59.15,740.11c0,0-1.35,907.47-.35,916.93s2681,20.63,2681,20.63V-68.5Z"/><path class="cls-8" d="M2529.93-68.25l-7.2,0c-27.26,110.5-62.82,232.58-160.93,290.28-64.52,37.94-144.54,39.52-218.21,26.29s-144.27-40-217.5-55.44a729.89,729.89,0,0,0-288.16-2.59c-67.85,13.08-135.38,36.76-188.25,81.24-54.78,46.08-89.9,110.83-136.08,165.52-55.39,65.58-132,118.51-217.7,124.06-96.27,6.24-184.94-46.54-271.08-90-108-54.45-224-97-344.58-105.52C379.59,358.54,275.11,377,188.1,426.78a405.78,405.78,0,0,0-49.61,33.4C48,531.47-6.9,637.46-59.15,740.11c0,0-1.35,907.47-.35,916.93s2681,20.63,2681,20.63V-68.5Z"/><path class="cls-9" d="M2529.93-68.25l-7.2,0c-27.26,110.5-62.82,232.58-160.93,290.28-64.52,37.94-144.54,39.52-218.21,26.29s-144.27-40-217.5-55.44a729.89,729.89,0,0,0-288.16-2.59c-67.85,13.08-135.38,36.76-188.25,81.24-54.78,46.08-89.9,110.83-136.08,165.52-55.39,65.58-132,118.51-217.7,124.06-96.27,6.24-184.94-46.54-271.08-90-108-54.45-224-97-344.58-105.52C379.59,358.54,275.11,377,188.1,426.78a405.78,405.78,0,0,0-49.61,33.4C48,531.47-6.9,637.46-59.15,740.11c0,0-1.35,907.47-.35,916.93s2681,20.63,2681,20.63V-68.5Z"/><path class="cls-1" d="M2544.22-23.19c14.13,175.57-63.19,441.26-281.35,418-109.92-11.71-204.61-66.71-318.35-58-89.49,6.83-208,41.89-255.39,126.23-43.34,77.08.56,178.37-77.31,240-79.22,62.74-180-.05-269.07,7.91-95.8,8.57-188.15,68.41-208.91,167.52-18.61,88.79,40.77,190.75,137,196.81l1317.64.18V-23.5Z"/><path class="cls-10" d="M1179,982c86,21,167,1,251-18,91-22,176-44,268-34,25,3,48,6,73,12,17.82,4.46,34.85,8.92,51.79,14.79a277.7,277.7,0,0,0,48.78-40.62C1906,880,1930.87,835,1969,802.82c69.29-58.6,169-64.38,259-53.05,48.62,6.12,96.81,16.38,145.76,18.64s99.79-4.09,142-28.92,74.23-70.83,72.45-119.8h.29V-23.5l-44.28.31c14.13,175.57-63.19,441.26-281.35,418-109.92-11.71-204.61-66.71-318.35-58-89.49,6.83-208,41.89-255.39,126.23-43.34,77.08.56,178.37-77.31,240-79.22,62.74-180-.05-269.07,7.91-95.8,8.57-188.15,68.41-208.91,167.52-6.32,30.16-3.64,61.84,6.43,90.77L1144,971C1156,975,1167,979,1179,982Z"/><path class="cls-11" d="M2526.78-27.52c7,64.53,2.86,130.78-15,193.31-17.2,60.23-48,117.72-95.5,159.45-56.27,49.43-129.24,68.2-203,66.33-48.64-1.24-96.62-10.23-144.6-17.52-31.72-4.82-63.51-9.31-95.48-12.12-64.59-5.69-133-5.71-194.3,18.28-28.93,11.34-55.5,28.3-76.93,50.9-25.35,26.73-41.64,58.55-49,94.6-7.78,38.22-8.13,78.35-22.9,114.91-13.23,32.74-39.49,60-70.88,75.88-55.1,27.94-120.55,20.37-179.93,16.26-58.26-4-121.76-7.81-174.22,22.64-29.61,17.19-53.24,44.14-67.82,75-16.88,35.73-21.63,75.77-21.35,114.91.15,20.05,1.64,40.05,3.58,60,.19,1.9,3.19,1.92,3,0-7.8-79.86-6.57-169.4,57.32-227.65,47.63-43.44,112.78-46.75,173.93-43.5,59.43,3.15,122.18,13.4,180.3-4.38A159.48,159.48,0,0,0,1607.08,683c26-29.28,35.21-65.6,40.66-103.46,5.69-39.55,9.68-79.59,31.48-114.2a202.85,202.85,0,0,1,72.78-69.2c58.36-32.57,128.31-36.75,193.67-33.2,76.63,4.16,151.49,21.45,227.71,29,75.74,7.54,153.76-.57,218.22-44,50.4-33.92,86.54-84.72,109.09-140.59,23.91-59.23,33.51-124,32.17-187.69q-.49-23.7-3.08-47.27c-.21-1.9-3.21-1.92-3,0Z"/><path class="cls-6" d="M2588.21,619.69c1.78,49-30.2,95-72.45,119.8s-93.09,31.18-142,28.92-97.14-12.52-145.76-18.64c-90-11.33-189.7-5.55-259,53.05-38.1,32.22-63,77.2-97.4,113.35-66.57,70-170,102.8-264.71,84L1611.5,1638h1015l-5-1018.31Z"/><path class="cls-12" d="M2588.21,619.69c1.78,49-30.2,95-72.45,119.8s-93.09,31.18-142,28.92-97.14-12.52-145.76-18.64c-90-11.33-189.7-5.55-259,53.05-38.1,32.22-63,77.2-97.4,113.35-66.57,70-170,102.8-264.71,84L1611.5,1638h1015l-5-1018.31Z"/><path class="cls-13" d="M2581.93,1567.6C2556,1558,2535,1542,2514,1524c-83-78-157-155-235-238-119-124-241-238-398-307-2-1-3,0-5-1-15-8-31-13-47-19-19-7-38-12-58-17-25-6-48-9-73-12-92-10-177,12-268,34-84,19-165,39-251,18-12-3-23-7-35-11-15-7-30-13-45-22-38-24-70-51-102-82a55.47,55.47,0,0,1-8-6c-17-18-35-33-53-50-1-1-2-3-3-4-8-6-14-12-21-19-7-6-14-12-22-18-4-3-6-7-10-10-68-57-134-106-211-150-53-30-105-55-161-76-5-1-9-3-14-4-43-16-86-27-132-36a774.42,774.42,0,0,0-209-10c-11,1-22,3-34,4a527.74,527.74,0,0,0-67,13,675.38,675.38,0,0,0-68,21c-20,8-18.61,45.67-44.18,47.48-.32,0,12.39,1052.32,12.39,1052.32l2630.29,23.7Z"/><path class="cls-14" d="M2581.93,1567.6C2556,1558,2535,1542,2514,1524c-83-78-157-155-235-238-119-124-241-238-398-307-2-1-3,0-5-1-15-8-31-13-47-19-19-7-38-12-58-17-25-6-48-9-73-12-92-10-177,12-268,34-84,19-165,39-251,18-12-3-23-7-35-11-15-7-30-13-45-22-38-24-70-51-102-82a55.47,55.47,0,0,1-8-6c-17-18-35-33-53-50-1-1-2-3-3-4-8-6-14-12-21-19-7-6-14-12-22-18-4-3-6-7-10-10-68-57-134-106-211-150-53-30-105-55-161-76-5-1-9-3-14-4-43-16-86-27-132-36a774.42,774.42,0,0,0-209-10c-11,1-22,3-34,4a527.74,527.74,0,0,0-67,13,675.38,675.38,0,0,0-68,21c-20,8-18.61,45.67-44.18,47.48-.32,0,12.39,1052.32,12.39,1052.32l2630.29,23.7Z"/><path class="cls-3" d="M-91.48,1426.74C-15,1435,62,1425,132,1393c2-1,3,0,5-1,11-6,23-11,34-17,10-7,20-12,30-19,20-13,37-27,54-43,38-37,70-75,114-108,31-22,62-39,97-50,4-2,8-3,12-5a603.49,603.49,0,0,1,61-15c20-3,40-5,60-7,8-1,17,0,25,0,160-4,310,58,457,116,133,52,269,99,412,94,63-3,126-15,184-43,25-13,50-25,75-37,29-13,60-19,91-21,60-3,120,11,175,35,2,1,3,0,5,1,37,16,70,37,106,59a43.49,43.49,0,0,1,7,6c10,6,19,12,29,19,72,52,133,102,208,147a35.52,35.52,0,0,0,9,4c63,36,130,61,200.77,63.21l.73,66.29H-91.5Z"/><path class="cls-11" d="M-14,534.9c198.9-64.6,415.83-31.81,603.88,51.85,90.73,40.37,176,92.1,256.69,149.89,41.29,29.59,81.4,60.81,120.61,93.11,36.27,29.87,71.48,61.2,109.92,88.33,38,26.86,79.41,48.79,124.89,59.82,44.72,10.84,91.17,11.64,136.82,7.58,97.58-8.69,192.27-37.86,290.23-43.54,198.15-11.48,366.37,105.93,506.15,233.69,134,122.45,257.26,265,424.4,343.64a636.75,636.75,0,0,0,59.76,24.45c1.82.65,2.61-2.25.8-2.89-179.82-63.31-313-206.5-447.78-334.59-130.06-123.59-284-249.08-469.67-266.29-193.94-18-396,105.55-580.52,3.13-44.05-24.45-82.9-56.9-121.34-89.15-36.6-30.7-73.6-60.89-111.73-89.68C809.2,704,725,649,635.14,604.7c-177-87.38-381-132.68-577-92.14a687.06,687.06,0,0,0-73,19.45c-1.83.59-1.05,3.49.79,2.89Z"/><path class="cls-15" d="M1484.07-76.11C1380.45-57.27,1295.62,2.28,1214.46,65.13c-86.68,67.13-174.75,130.63-276.25,173.16-146.87,61.54-304.49,97.09-463.83,101-163.3,4-315.57-34.4-472.93-72L-104.42,242q2.83,7.8,5.68,15.58"/></svg>