<?xml version="1.0" encoding="utf-8"?>
<!-- Generator: Adobe Illustrator 22.1.0, SVG Export Plug-In . SVG Version: 6.00 Build 0)  -->
<svg version="1.1" id="背景" xmlns="http://www.w3.org/2000/svg" xmlns:xlink="http://www.w3.org/1999/xlink" x="0px" y="0px"
	 viewBox="0 0 2560 1600" style="enable-background:new 0 0 2560 1600;" xml:space="preserve">
<style type="text/css">
	.st0{clip-path:url(#SVGID_2_);}
	.st1{fill:#FCAB92;}
	.st2{opacity:0.2;fill:#FF6666;enable-background:new    ;}
	.st3{fill:url(#shadow_1_);}
	.st4{fill:#FFFF33;}
	.st5{opacity:0.2;fill:#FFFFFF;enable-background:new    ;}
	.st6{opacity:0.15;fill:#FF9966;enable-background:new    ;}
	.st7{opacity:0.5;fill:url(#shadow-2_1_);}
	.st8{opacity:0.5;fill:url(#shadow-3_1_);}
	.st9{fill:#FFFBDE;}
	.st10{opacity:0.7;fill:url(#shadow-4_1_);}
	.st11{opacity:0.7;fill:url(#shadow-5_1_);}
	.st12{opacity:0.7;fill:url(#shadow-6_1_);}
	.st13{opacity:0.7;fill:url(#shadow-7_1_);}
	.st14{fill:#FFFFFF;}
	.st15{opacity:0.6;fill:url(#shadow-8_1_);}
	.st16{fill:#D3D3D3;}
	.st17{fill:url(#shadow-9_1_);}
</style>
<title>bg_3 7</title>
<g>
	<g>
		<defs>
			<rect id="SVGID_1_" x="-0.5" y="-0.5" width="2560.5" height="1600"/>
		</defs>
		<clipPath id="SVGID_2_">
			<use xlink:href="#SVGID_1_"  style="overflow:visible;"/>
		</clipPath>
		<g class="st0">
			<rect x="-0.5" y="-0.5" class="st1" width="2560" height="1600"/>
			<rect x="-0.5" y="-0.5" class="st2" width="2560" height="1600"/>
			<radialGradient id="shadow_1_" cx="391.62" cy="-1014.3701" r="1393.63" gradientUnits="userSpaceOnUse">
				<stop  offset="5.000000e-02" style="stop-color:#000000;stop-opacity:0"/>
				<stop  offset="0.35" style="stop-color:#000000;stop-opacity:0"/>
				<stop  offset="0.6491" style="stop-color:#000000;stop-opacity:0"/>
				<stop  offset="0.8314" style="stop-color:#000000;stop-opacity:3.127121e-03"/>
				<stop  offset="0.8614" style="stop-color:#000000;stop-opacity:3.641861e-03"/>
				<stop  offset="1" style="stop-color:#000000;stop-opacity:0.3"/>
			</radialGradient>
			<rect id="shadow" x="-0.5" y="-0.5" class="st3" width="2560" height="1600"/>
			<path class="st4" d="M1394.8-42.9C1228.9-8.8,1073.1,61.8,917.7,129.2S603.6,262.1,435.8,285s-348.2-0.9-486.1-99.2l-9.2,1568.7
				h2681v-1797L1394.8-42.9z"/>
			<path id="white_1_" class="st5" d="M1394.8-42.9C1228.9-8.8,1073.1,61.8,917.7,129.2S603.6,262.1,435.8,285
				s-348.2-0.9-486.1-99.2l-9.2,1568.7h2681v-1797L1394.8-42.9z"/>
			<path id="orange_1_" class="st6" d="M1394.8-42.9C1228.9-8.8,1073.1,61.8,917.7,129.2S603.6,262.1,435.8,285
				s-348.2-0.9-486.1-99.2l-9.2,1568.7h2681v-1797L1394.8-42.9z"/>
			
				<linearGradient id="shadow-2_1_" gradientUnits="userSpaceOnUse" x1="1434.8148" y1="1429.8071" x2="1313.3163" y2="778.4402" gradientTransform="matrix(1 0 0 -1 0 1600)">
				<stop  offset="0.3476" style="stop-color:#000000;stop-opacity:0"/>
				<stop  offset="0.3942" style="stop-color:#000000;stop-opacity:0"/>
				<stop  offset="0.6701" style="stop-color:#000000;stop-opacity:0"/>
				<stop  offset="0.9" style="stop-color:#000000;stop-opacity:0.18"/>
				<stop  offset="1" style="stop-color:#000000;stop-opacity:0.3"/>
			</linearGradient>
			<path id="shadow-2" class="st7" d="M1394.8-42.9C1228.9-8.8,1073.1,61.8,917.7,129.2S603.6,262.1,435.8,285
				s-348.2-0.9-486.1-99.2l-9.2,1568.7h2681v-1797L1394.8-42.9z"/>
			
				<linearGradient id="shadow-3_1_" gradientUnits="userSpaceOnUse" x1="1112.9714" y1="1447.0667" x2="1241.2198" y2="910.4484" gradientTransform="matrix(1 0 0 -1 0 1600)">
				<stop  offset="0.1228" style="stop-color:#000000;stop-opacity:0"/>
				<stop  offset="0.7084" style="stop-color:#000000;stop-opacity:0.1595"/>
				<stop  offset="0.7837" style="stop-color:#000000;stop-opacity:0.18"/>
				<stop  offset="1" style="stop-color:#000000;stop-opacity:0.3"/>
			</linearGradient>
			<path id="shadow-3" class="st8" d="M1394.8-42.9C1228.9-8.8,1073.1,61.8,917.7,129.2S603.6,262.1,435.8,285
				s-348.2-0.9-486.1-99.2l-9.2,1568.7h2681v-1797L1394.8-42.9z"/>
			<path class="st9" d="M2635,1768H-73.1l9.4-1608.3l21.2,15.1c64.1,45.6,140.3,76.8,226.5,92.7c78.8,14.6,162.9,16,249.9,4.1
				c164.1-22.4,319.9-86,478.4-154.8l31.5-13.6C1087.4,40.6,1236-24,1392.1-56.2l1.3-0.2L2635-56V1768z M-45.9,1741H2608V-28.9
				l-1129.7-0.4c-28.4,0-57.2,0-84.2,8.8s-49.9,25.4-72.9,41.4c-197.4,137.5-419.5,244.2-656.3,286.4
				C447.6,345.9,216.6,328,14.1,236.8C-2.3,229.5-19,218.4-36,213.3c-6.7,28.1-1.4,64.3-1.6,93.5l-0.5,95.6l-1.1,191.2l-2.3,382.5
				L-45.9,1741z"/>
			<radialGradient id="shadow-4_1_" cx="448.13" cy="-1046.51" r="1410.83" gradientUnits="userSpaceOnUse">
				<stop  offset="5.000000e-02" style="stop-color:#000000;stop-opacity:0"/>
				<stop  offset="0.35" style="stop-color:#000000;stop-opacity:0"/>
				<stop  offset="0.4" style="stop-color:#000000;stop-opacity:0"/>
				<stop  offset="0.84" style="stop-color:#000000;stop-opacity:0"/>
				<stop  offset="0.91" style="stop-color:#000000;stop-opacity:0"/>
				<stop  offset="0.99" style="stop-color:#000000;stop-opacity:0.19"/>
				<stop  offset="1" style="stop-color:#000000;stop-opacity:0.3"/>
			</radialGradient>
			<path id="shadow-4" class="st10" d="M2635,1768H-73.1l9.4-1608.3l21.2,15.1c64.1,45.6,140.3,76.8,226.5,92.7
				c78.8,14.6,162.9,16,249.9,4.1c164.1-22.4,319.9-86,478.4-154.8l31.5-13.6C1087.4,40.6,1236-24,1392.1-56.2l1.3-0.2L2635-56V1768
				z M-45.9,1741H2608V-28.9l-1129.7-0.4c-28.4,0-57.2,0-84.2,8.8s-49.9,25.4-72.9,41.4c-197.4,137.5-419.5,244.2-656.3,286.4
				C447.6,345.9,216.6,328,14.1,236.8C-2.3,229.5-19,218.4-36,213.3c-6.7,28.1-1.4,64.3-1.6,93.5l-0.5,95.6l-1.1,191.2l-2.3,382.5
				L-45.9,1741z"/>
			<path class="st9" d="M2529.9-68.2h-7.2c-27.2,110.5-62.8,232.6-160.9,290.2c-64.5,38-144.5,39.6-218.2,26.3
				s-144.3-39.9-217.5-55.4c-94.9-20-192.9-20.9-288.2-2.6c-67.8,13.1-135.3,36.8-188.2,81.2c-54.8,46.1-89.9,110.9-136.1,165.6
				c-55.4,65.6-132,118.5-217.7,124c-96.3,6.3-184.9-46.5-271.1-89.9c-108-54.5-223.9-97.1-344.6-105.6
				c-100.6-7.1-205.1,11.4-292.1,61.2c-17.3,9.9-33.9,21.1-49.6,33.4C48,531.5-6.9,637.5-59.2,740.1c0,0-1.3,907.5-0.3,916.9
				s2681,20.7,2681,20.7V-68.5L2529.9-68.2z"/>
			<linearGradient id="shadow-5_1_" gradientUnits="userSpaceOnUse" x1="1517.3058" y1="826.4836" x2="1206.7958" y2="1317.2936">
				<stop  offset="0.29" style="stop-color:#000000;stop-opacity:0"/>
				<stop  offset="0.99" style="stop-color:#000000;stop-opacity:0.29"/>
				<stop  offset="1" style="stop-color:#000000;stop-opacity:0.3"/>
			</linearGradient>
			<path id="shadow-5" class="st11" d="M2529.9-68.2h-7.2c-27.2,110.5-62.8,232.6-160.9,290.2c-64.5,38-144.5,39.6-218.2,26.3
				s-144.3-39.9-217.5-55.4c-94.9-20-192.9-20.9-288.2-2.6c-67.8,13.1-135.3,36.8-188.2,81.2c-54.8,46.1-89.9,110.9-136.1,165.6
				c-55.4,65.6-132,118.5-217.7,124c-96.3,6.3-184.9-46.5-271.1-89.9c-108-54.5-223.9-97.1-344.6-105.6
				c-100.6-7.1-205.1,11.4-292.1,61.2c-17.3,9.9-33.9,21.1-49.6,33.4C48,531.5-6.9,637.5-59.2,740.1c0,0-1.3,907.5-0.3,916.9
				s2681,20.7,2681,20.7V-68.5L2529.9-68.2z"/>
			<linearGradient id="shadow-6_1_" gradientUnits="userSpaceOnUse" x1="1103.4745" y1="336.6882" x2="1352.7745" y2="979.2482">
				<stop  offset="0.29" style="stop-color:#000000;stop-opacity:0"/>
				<stop  offset="1" style="stop-color:#000000;stop-opacity:0.3"/>
			</linearGradient>
			<path id="shadow-6" class="st12" d="M2529.9-68.2h-7.2c-27.2,110.5-62.8,232.6-160.9,290.2c-64.5,38-144.5,39.6-218.2,26.3
				s-144.3-39.9-217.5-55.4c-94.9-20-192.9-20.9-288.2-2.6c-67.8,13.1-135.3,36.8-188.2,81.2c-54.8,46.1-89.9,110.9-136.1,165.6
				c-55.4,65.6-132,118.5-217.7,124c-96.3,6.3-184.9-46.5-271.1-89.9c-108-54.5-223.9-97.1-344.6-105.6
				c-100.6-7.1-205.1,11.4-292.1,61.2c-17.3,9.9-33.9,21.1-49.6,33.4C48,531.5-6.9,637.5-59.2,740.1c0,0-1.3,907.5-0.3,916.9
				s2681,20.7,2681,20.7V-68.5L2529.9-68.2z"/>
			<path class="st1" d="M2544.2-23.2c14.1,175.6-63.2,441.3-281.3,418c-110-11.7-204.6-66.7-318.4-58
				c-89.5,6.8-207.9,41.9-255.4,126.2c-43.3,77.1,0.6,178.4-77.3,240.1s-180-0.1-269.1,7.9c-95.7,8.6-188.1,68.4-208.9,167.5
				c-18.6,88.8,40.8,190.8,137.1,196.8l1317.6,0.2v-1099L2544.2-23.2z"/>
			<path class="st2" d="M2544.2-23.2c14.1,175.6-63.2,441.3-281.3,418c-110-11.7-204.6-66.7-318.4-58
				c-89.5,6.8-207.9,41.9-255.4,126.2c-43.3,77.1,0.6,178.4-77.3,240.1s-180-0.1-269.1,7.9c-95.7,8.6-188.1,68.4-208.9,167.5
				c-18.6,88.8,40.8,190.8,137.1,196.8l1317.6,0.2v-1099L2544.2-23.2z"/>
			<linearGradient id="shadow-7_1_" gradientUnits="userSpaceOnUse" x1="1854.3179" y1="427.1604" x2="1957.748" y2="939.6204">
				<stop  offset="0.4345" style="stop-color:#000000;stop-opacity:0"/>
				<stop  offset="0.8891" style="stop-color:#000000;stop-opacity:0.1967"/>
				<stop  offset="0.92" style="stop-color:#000000;stop-opacity:0.21"/>
				<stop  offset="1" style="stop-color:#000000;stop-opacity:0.3"/>
			</linearGradient>
			<path id="shadow-7" class="st13" d="M1179,982c86,21,167,1,251-18c91-22,176-44,268-34c25,3,48,6,73,12
				c17.8,4.5,34.9,8.9,51.8,14.8c17.8-11.6,34.1-25.3,48.8-40.6c34.4-36.2,59.3-81.2,97.4-113.4c69.3-58.6,168.9-64.4,259-53
				c48.6,6.1,96.8,16.3,145.7,18.6s99.8-4.1,142.1-28.9s74.2-70.8,72.4-119.8h0.3V-23.5l-44.3,0.3c14.1,175.6-63.2,441.3-281.3,418
				c-110-11.7-204.6-66.7-318.4-58c-89.5,6.8-207.9,41.9-255.4,126.2c-43.3,77.1,0.6,178.4-77.3,240.1s-180-0.1-269.1,7.9
				c-95.7,8.6-188.1,68.4-208.9,167.5c-6.3,30.2-3.6,61.9,6.5,90.8l3.7,1.7C1156,975,1167,979,1179,982z"/>
			<path class="st14" d="M2526.8-27.5c7,64.5,2.8,130.8-15,193.3c-17.2,60.2-48,117.7-95.5,159.4c-56.3,49.5-129.3,68.2-203,66.4
				c-48.7-1.3-96.7-10.3-144.6-17.6c-31.8-4.8-63.5-9.3-95.5-12.1c-64.6-5.7-133.1-5.7-194.3,18.3c-28.9,11.3-55.5,28.3-76.9,50.9
				c-25.4,26.7-41.7,58.6-49,94.6c-7.8,38.2-8.1,78.4-22.9,114.9c-13.2,32.8-39.5,60-70.9,75.9c-55.1,27.9-120.6,20.4-179.9,16.3
				s-121.8-7.8-174.3,22.6c-29.6,17.2-53.2,44.1-67.8,75c-16.8,35.7-21.6,75.8-21.3,114.9c0.1,20.1,1.6,40.1,3.6,60
				c0.1,1.9,3.2,1.9,3,0c-7.8-79.8-6.6-169.4,57.3-227.6c47.6-43.5,112.8-46.8,173.9-43.5c59.4,3.1,122.2,13.4,180.3-4.4
				c28.2-8.6,53.5-24.8,73.1-46.8c25.9-29.3,35.2-65.6,40.6-103.5c5.7-39.5,9.7-79.5,31.5-114.2c18.1-28.8,43.2-52.5,72.8-69.2
				c58.4-32.5,128.3-36.7,193.7-33.2c76.6,4.2,151.5,21.5,227.7,29.1s153.7-0.6,218.2-44c50.4-33.9,86.5-84.7,109.1-140.6
				c23.9-59.2,33.5-124,32.2-187.7c-0.4-15.7-1.4-31.5-3.1-47.2C2529.6-29.4,2526.6-29.4,2526.8-27.5L2526.8-27.5z"/>
			<path class="st9" d="M2588.2,619.7c1.8,49-30.2,95-72.4,119.8s-93.1,31.2-142.1,28.9s-97.1-12.5-145.7-18.6
				c-90.1-11.4-189.7-5.6-259,53c-38.1,32.2-63,77.2-97.4,113.4c-66.6,70-170,102.8-264.7,84l4.6,637.8h1015l-5-1018.3H2588.2z"/>
			<linearGradient id="shadow-8_1_" gradientUnits="userSpaceOnUse" x1="2447.1897" y1="781.7421" x2="2075.2397" y2="1386.5121">
				<stop  offset="0.29" style="stop-color:#000000;stop-opacity:0"/>
				<stop  offset="0.94" style="stop-color:#000000;stop-opacity:0.48"/>
				<stop  offset="1" style="stop-color:#000000;stop-opacity:0.6"/>
			</linearGradient>
			<path id="shadow-8" class="st15" d="M2588.2,619.7c1.8,49-30.2,95-72.4,119.8s-93.1,31.2-142.1,28.9s-97.1-12.5-145.7-18.6
				c-90.1-11.4-189.7-5.6-259,53c-38.1,32.2-63,77.2-97.4,113.4c-66.6,70-170,102.8-264.7,84l4.6,637.8h1015l-5-1018.3H2588.2z"/>
			<path class="st16" d="M2581.9,1567.6c-25.9-9.6-46.9-25.6-67.9-43.6c-83-78-157-155-235-238c-119-124-241-238-398-307
				c-2-1-3,0-5-1c-15-8-31-13-47-19c-19-7-38-12-58-17c-25-6-48-9-73-12c-92-10-177,12-268,34c-84,19-165,39-251,18
				c-12-3-23-7-35-11c-15-7-30-13-45-22c-38-24-70-51-102-82c-2.8-1.8-5.5-3.8-8-6c-17-18-35-33-53-50c-1-1-2-3-3-4
				c-8-6-14-12-21-19s-14-12-22-18c-4-3-6-7-10-10c-68-57-134-106-211-150c-53-30-105-55-161-76c-5-1-9-3-14-4c-43-16-86-27-132-36
				c-68.9-12.8-139.2-16.1-209-10c-11,1-22,3-34,4c-22.6,2.9-45,7.2-67,13c-23,5.8-45.7,12.8-68,21c-20,8-18.6,45.7-44.2,47.5
				c-0.3,0,12.4,1052.3,12.4,1052.3l2630.3,23.7L2581.9,1567.6z"/>
			<linearGradient id="shadow-9_1_" gradientUnits="userSpaceOnUse" x1="1261.1473" y1="680.61" x2="1261.1473" y2="1758.24">
				<stop  offset="0" style="stop-color:#000000;stop-opacity:0"/>
				<stop  offset="1" style="stop-color:#000000;stop-opacity:0.6"/>
			</linearGradient>
			<path id="shadow-9" class="st17" d="M2581.9,1567.6c-25.9-9.6-46.9-25.6-67.9-43.6c-83-78-157-155-235-238
				c-119-124-241-238-398-307c-2-1-3,0-5-1c-15-8-31-13-47-19c-19-7-38-12-58-17c-25-6-48-9-73-12c-92-10-177,12-268,34
				c-84,19-165,39-251,18c-12-3-23-7-35-11c-15-7-30-13-45-22c-38-24-70-51-102-82c-2.8-1.8-5.5-3.8-8-6c-17-18-35-33-53-50
				c-1-1-2-3-3-4c-8-6-14-12-21-19s-14-12-22-18c-4-3-6-7-10-10c-68-57-134-106-211-150c-53-30-105-55-161-76c-5-1-9-3-14-4
				c-43-16-86-27-132-36c-68.9-12.8-139.2-16.1-209-10c-11,1-22,3-34,4c-22.6,2.9-45,7.2-67,13c-23,5.8-45.7,12.8-68,21
				c-20,8-18.6,45.7-44.2,47.5c-0.3,0,12.4,1052.3,12.4,1052.3l2630.3,23.7L2581.9,1567.6z"/>
			<path class="st4" d="M-91.5,1426.7C-15,1435,62,1425,132,1393c2-1,3,0,5-1c11-6,23-11,34-17s20-12,30-19c20-13,37-27,54-43
				c38-37,70-75,114-108c31-22,62-39,97-50c4-2,8-3,12-5c20.1-6.1,40.4-11.1,61-15c20-3,40-5,60-7c8-1,17,0,25,0
				c160-4,310,58,457,116c133,52,269,99,412,94c63-3,126-15,184-43c25-13,50-25,75-37c29-13,60-19,91-21c60-3,120,11,175,35
				c2,1,3,0,5,1c37,16,70,37,106,59c2.5,1.7,4.9,3.8,7,6c10,6,19,12,29,19c72,52,133,102,208,147c2.8,1.7,5.8,3.1,9,4
				c63,36,130,61,200.8,63.2l0.7,66.3h-2675V1426.7z"/>
			<path id="white" class="st5" d="M-91.5,1426.7C-15,1435,62,1425,132,1393c2-1,3,0,5-1c11-6,23-11,34-17s20-12,30-19
				c20-13,37-27,54-43c38-37,70-75,114-108c31-22,62-39,97-50c4-2,8-3,12-5c20.1-6.1,40.4-11.1,61-15c20-3,40-5,60-7c8-1,17,0,25,0
				c160-4,310,58,457,116c133,52,269,99,412,94c63-3,126-15,184-43c25-13,50-25,75-37c29-13,60-19,91-21c60-3,120,11,175,35
				c2,1,3,0,5,1c37,16,70,37,106,59c2.5,1.7,4.9,3.8,7,6c10,6,19,12,29,19c72,52,133,102,208,147c2.8,1.7,5.8,3.1,9,4
				c63,36,130,61,200.8,63.2l0.7,66.3h-2675V1426.7z"/>
			<path id="orange" class="st6" d="M-91.5,1426.7C-15,1435,62,1425,132,1393c2-1,3,0,5-1c11-6,23-11,34-17s20-12,30-19
				c20-13,37-27,54-43c38-37,70-75,114-108c31-22,62-39,97-50c4-2,8-3,12-5c20.1-6.1,40.4-11.1,61-15c20-3,40-5,60-7c8-1,17,0,25,0
				c160-4,310,58,457,116c133,52,269,99,412,94c63-3,126-15,184-43c25-13,50-25,75-37c29-13,60-19,91-21c60-3,120,11,175,35
				c2,1,3,0,5,1c37,16,70,37,106,59c2.5,1.7,4.9,3.8,7,6c10,6,19,12,29,19c72,52,133,102,208,147c2.8,1.7,5.8,3.1,9,4
				c63,36,130,61,200.8,63.2l0.7,66.3h-2675V1426.7z"/>
			<path class="st14" d="M-14,534.9c198.9-64.6,415.8-31.8,603.8,51.8c90.8,40.4,176.1,92.1,256.7,149.9
				c41.3,29.6,81.4,60.9,120.6,93.1c36.3,29.9,71.5,61.2,109.9,88.4s79.5,48.8,124.9,59.8s91.2,11.6,136.9,7.6
				c97.5-8.7,192.2-37.9,290.2-43.6c198.1-11.4,366.4,106,506.1,233.7c134,122.5,257.3,265,424.4,343.7
				c19.5,9.1,39.5,17.3,59.8,24.4c1.8,0.7,2.6-2.2,0.8-2.9c-179.8-63.3-313-206.5-447.8-334.6c-130-123.5-284-249-469.7-266.2
				c-193.9-18-395.9,105.5-580.5,3.1c-44-24.5-82.9-56.9-121.3-89.2c-36.6-30.7-73.6-60.9-111.7-89.7
				C809.2,703.9,725,649,635.1,604.7c-177-87.4-380.9-132.7-576.9-92.1c-24.7,5.1-49,11.6-73,19.4C-16.7,532.6-15.9,535.5-14,534.9z
				"/>
			<path class="st14" d="M450.4,341.1c-147.3,0-284.4-32.9-429.1-67.5l-20.2-4.9l-103.2-24.6l4.8,12.9l-2.9,1l-6.6-18.1L1.8,265.8
				l20.2,4.8c152.3,36.5,296.2,71,452.3,67.2c79.5-2,158.6-11.7,236.3-28.9c77.7-17.1,153.7-41.2,227-72
				c105.7-44.3,197.9-112.5,275.9-173s164.8-122.3,270.3-141.5l0.5,3c-104.8,19-190.3,80.1-268.9,140.9s-170.6,128.9-276.6,173.4
				c-73.5,30.8-149.7,55-227.5,72.2c-77.9,17.1-157.2,26.8-236.9,28.9C466.4,341,458.4,341.1,450.4,341.1z"/>
		</g>
	</g>
</g>
</svg>
