<svg id="圖層_1" data-name="圖層 1" xmlns="http://www.w3.org/2000/svg" viewBox="0 0 127.72 110.29"><defs><style>.cls-1{fill:#595959;}</style></defs><title>birthday</title><path class="cls-1" d="M1716,436.93h-1.7v-4.19h18.26a.49.49,0,0,0,.49-.48V421.19a.49.49,0,0,0-.49-.49H1615.1a.49.49,0,0,0-.48.49v11.07a.49.49,0,0,0,.48.48h18.26v4.19h-1.69A21.71,21.71,0,0,0,1610,458.62V509.3a21.72,21.72,0,0,0,21.69,21.7H1716a21.73,21.73,0,0,0,21.7-21.7V458.62A21.72,21.72,0,0,0,1716,436.93Zm-10.85,9.28V432.74h4.2v18a2.1,2.1,0,0,1-2.09,2.1,2.13,2.13,0,0,1-2.11-2.1Zm-57.68-13.47h52.73v4.19h-52.73Zm-9.15,13.47V432.74h4.19v18a2.09,2.09,0,0,1-2.09,2.1,2.13,2.13,0,0,1-2.1-2.1Zm90.09,63.09A12.43,12.43,0,0,1,1716,521.71h-84.33a12.42,12.42,0,0,1-12.41-12.41V458.62a12.42,12.42,0,0,1,12.41-12.41h1.69v4.57a7.06,7.06,0,1,0,14.11,0v-4.57h52.73v4.57a7.05,7.05,0,1,0,14.1,0v-4.57h1.7a12.43,12.43,0,0,1,12.41,12.41Zm-14.11-38.76a2.48,2.48,0,0,1-2.47,2.48h-76a2.48,2.48,0,0,1,0-5h76A2.48,2.48,0,0,1,1714.3,470.54Zm0,15.19a2.48,2.48,0,0,1-2.47,2.48h-76a2.48,2.48,0,0,1,0-5h76A2.48,2.48,0,0,1,1714.3,485.73Zm-18.91,15.19a2.49,2.49,0,0,1-2.48,2.48h-57.07a2.48,2.48,0,0,1,0-5h57.07A2.49,2.49,0,0,1,1695.39,500.92Z" transform="translate(-1609.98 -420.7)"/></svg>