<svg id="圖層_1" data-name="圖層 1" xmlns="http://www.w3.org/2000/svg" viewBox="0 0 140.49 134.81"><defs><style>.cls-1{fill:#595959;}</style></defs><title>design</title><path class="cls-1" d="M1695.24,1029.59a28.23,28.23,0,0,0-5.35-16.29,28.21,28.21,0,0,0,5.35-16.29c0-19.2-20.59-34.82-45.89-34.82s-45.89,15.62-45.89,34.82a28.27,28.27,0,0,0,5.34,16.29,27.53,27.53,0,0,0,0,32.59,28.19,28.19,0,0,0-5.35,16.29c0,19.2,20.59,34.82,45.9,34.82s45.89-15.62,45.89-34.82a28.19,28.19,0,0,0-5.35-16.29A28.24,28.24,0,0,0,1695.24,1029.59Zm-75.34-16.29c6.87-6.14,17.51-10.1,29.45-10.1s22.58,4,29.45,10.1c-6.87,6.15-17.51,10.11-29.45,10.11S1626.77,1019.45,1619.9,1013.3Zm13.28,16.29a48.28,48.28,0,0,0-18.57,9.87,19.19,19.19,0,0,1,0-19.73A48.26,48.26,0,0,0,1633.18,1029.59Zm16.17,6.19c11.94,0,22.58,4,29.45,10.11-6.87,6.14-17.51,10.1-29.45,10.1s-22.58-4-29.45-10.1C1626.77,1039.74,1637.41,1035.78,1649.35,1035.78Zm16.17-6.19a48.26,48.26,0,0,0,18.57-9.86,19.19,19.19,0,0,1,0,19.73A48.28,48.28,0,0,0,1665.52,1029.59Zm-16.17-59c20.66,0,37.47,11.84,37.47,26.4a19.72,19.72,0,0,1-2.73,9.87c-8.42-7.41-20.87-12.11-34.74-12.11s-26.32,4.7-34.74,12.11a19.72,19.72,0,0,1-2.73-9.87C1611.88,982.45,1628.69,970.61,1649.35,970.61Zm0,118c-20.66,0-37.47-11.84-37.47-26.39a19.61,19.61,0,0,1,2.73-9.87c8.42,7.4,20.87,12.11,34.74,12.11s26.32-4.71,34.74-12.11a19.72,19.72,0,0,1,2.73,9.87C1686.82,1076.73,1670,1088.57,1649.35,1088.57Zm72.13-52h22.46v50.55h-22.46Zm0-36.52h22.46v22.47h-22.46Zm22.46-33.7v11.24h-22.46V966.4Z" transform="translate(-1603.45 -962.19)"/></svg>