<svg id="圖層_1" data-name="圖層 1" xmlns="http://www.w3.org/2000/svg" viewBox="0 0 542.64 340.97"><defs><style>.cls-1{fill:#ff7c80;}.cls-2,.cls-3{fill:#fcf7f5;}.cls-3{font-size:47.91px;font-family:PingFangTC-Semibold-B5pc-H, PingFang TC;font-weight:700;letter-spacing:0.07em;}</style></defs><title>email_bt</title><rect class="cls-1" x="0.09" y="0.19" width="542.46" height="340.59" rx="75.42" ry="75.42"/><path class="cls-2" d="M882.93,722.75l70.44-.07a12.76,12.76,0,0,1,12.57,10.62l-45.75,24.13a4.31,4.31,0,0,1-4,0l-45.79-24A12.75,12.75,0,0,1,882.93,722.75Zm83.24,49.68a12.76,12.76,0,0,1-12.74,12.76l-70.43.07a12.77,12.77,0,0,1-12.77-12.74l0-30.92,46.28,24.29a3.71,3.71,0,0,0,3.43,0l46.23-24.39Z" transform="translate(-646.91 -629.66)"/><path class="cls-2" d="M953.43,785.73,883,785.8a13.31,13.31,0,0,1-13.31-13.28l0-31.82,47.08,24.71a3.21,3.21,0,0,0,2.91,0l47-24.8,0,31.83A13.31,13.31,0,0,1,953.43,785.73ZM870.75,742.5l0,30A12.2,12.2,0,0,0,883,784.71l70.44-.07a12.22,12.22,0,0,0,12.2-12.21l0-30-45.44,24a4.32,4.32,0,0,1-3.93,0Zm47.44,16a4.88,4.88,0,0,1-2.26-.56l-46.15-24.22.07-.39a13.23,13.23,0,0,1,13.08-11.09l70.44-.07a13.25,13.25,0,0,1,13.11,11.07l.06.39-.34.18-45.75,24.13A4.91,4.91,0,0,1,918.19,758.47ZM871,733.1,916.43,757a3.76,3.76,0,0,0,3.51,0L965.33,733a12.17,12.17,0,0,0-12-9.78l-70.44.07A12.17,12.17,0,0,0,871,733.1Z" transform="translate(-646.91 -629.66)"/><path class="cls-2" d="M845.15,708.86l-29.36,0v-5.45l29.35,0a13.65,13.65,0,0,0,13.64-13.66l0-32.62h5.44l0,32.62A19.12,19.12,0,0,1,845.15,708.86Z" transform="translate(-646.91 -629.66)"/><path class="cls-2" d="M884.45,774.14l-29.35,0A19.12,19.12,0,0,1,836,755.1l-.05-49h5.45l0,49a13.65,13.65,0,0,0,13.66,13.64l29.36,0Z" transform="translate(-646.91 -629.66)"/><path class="cls-2" d="M929.17,852.49h-5.45l0-20.65a19.12,19.12,0,0,1,19.08-19.11l55.44,0A13.67,13.67,0,0,0,1011.86,799V787.13a13.67,13.67,0,0,0-13.66-13.64l-37.53,0v-5.45l37.52,0a19.1,19.1,0,0,1,19.11,19.07l0,11.89a19.12,19.12,0,0,1-19.08,19.12l-55.44,0a13.67,13.67,0,0,0-13.64,13.67Z" transform="translate(-646.91 -629.66)"/><path class="cls-2" d="M878.48,834.58l-51.13,0v-5.45l51.13,0a13.65,13.65,0,0,0,13.64-13.66l0-29.9h5.45l0,29.9A19.12,19.12,0,0,1,878.48,834.58Z" transform="translate(-646.91 -629.66)"/><path class="cls-2" d="M898,735.48h-5.44l0-26.09a19.12,19.12,0,0,1,19.08-19.12l62-.06v5.45l-62,.06A13.65,13.65,0,0,0,898,709.39Z" transform="translate(-646.91 -629.66)"/><path class="cls-2" d="M1014.51,720.12l-23.91,0a19.12,19.12,0,0,1-19.12-19.08l0-35.89h5.44l0,35.88a13.65,13.65,0,0,0,13.66,13.64l23.91,0Z" transform="translate(-646.91 -629.66)"/><circle class="cls-2" cx="214.71" cy="27.41" r="5.44"/><circle class="cls-2" cx="168.88" cy="76.51" r="5.44"/><circle class="cls-2" cx="180.44" cy="202.25" r="5.44"/><circle class="cls-2" cx="279.54" cy="222.84" r="5.44"/><circle class="cls-2" cx="367.6" cy="87.74" r="5.44"/><circle class="cls-2" cx="327.39" cy="35.58" r="5.44"/><text class="cls-3" transform="translate(199.62 295.49) rotate(-0.06)">Email</text></svg>