<svg id="圖層_1" data-name="圖層 1" xmlns="http://www.w3.org/2000/svg" viewBox="0 0 194.2 134.56"><defs><style>.cls-1{fill:#595959;}</style></defs><title>graduate</title><path class="cls-1" d="M1775.17,721.63,1679.45,678l-90.72,41.34h-2.52v1.15l-2.48,1.13,2.48,1v50.86a8.32,8.32,0,0,0-5.24,7.73v31.37h16.67V781.2a8.34,8.34,0,0,0-5.24-7.74v-48.4l39,15.45a4.41,4.41,0,0,0-.09.89v28.35l1.82,1.39c12.9,9.84,33.63,15.34,41.94,17.25a19.17,19.17,0,0,0,8.7,0c8.32-1.91,29.06-7.41,41.94-17.25l1.82-1.39V741.4a4.41,4.41,0,0,0-.09-.89Zm-95.72-33.41,72,32.81-32,12.65-40.06,15.85-40-15.85-32-12.65Zm2.27,91.12a9.38,9.38,0,0,1-4.53,0c-7.34-1.68-25-6.33-36.57-14.26V744.14l38.83,15.37,38.83-15.36v20.93C1706.72,773,1689.05,777.66,1681.72,779.34Z" transform="translate(-1580.97 -678.01)"/></svg>