<svg id="圖層_1" data-name="圖層 1" xmlns="http://www.w3.org/2000/svg" viewBox="0 0 542.46 340.59"><defs><style>.cls-1{fill:#68d5cc;}.cls-2,.cls-3{fill:#fcf7f5;}.cls-3{font-size:47.91px;font-family:PingFangTC-Semibold-B5pc-H, PingFang TC;font-weight:700;letter-spacing:0.07em;}</style></defs><title>phone_bt</title><rect class="cls-1" width="542.46" height="340.59" rx="75.42" ry="75.42"/><path class="cls-2" d="M1669.75,674.49h-52.87a17.14,17.14,0,0,0-17.12,17.11V818.52a17.14,17.14,0,0,0,17.12,17.11h52.87a17.14,17.14,0,0,0,17.12-17.11V691.6A17.14,17.14,0,0,0,1669.75,674.49Zm9.5,144a9.51,9.51,0,0,1-9.5,9.49h-52.87a9.5,9.5,0,0,1-9.49-9.49V691.6a9.5,9.5,0,0,1,9.49-9.49h9.56v2.17a3.82,3.82,0,0,0,3.82,3.82h26.12a3.82,3.82,0,0,0,3.81-3.82v-2.17h9.56a9.51,9.51,0,0,1,9.5,9.49Z" transform="translate(-1371.54 -629.85)"/><circle class="cls-2" cx="253.26" cy="103.98" r="5.99"/><circle class="cls-2" cx="271.77" cy="103.98" r="5.99"/><circle class="cls-2" cx="290.28" cy="103.98" r="5.99"/><circle class="cls-2" cx="253.26" cy="120.31" r="5.99"/><circle class="cls-2" cx="271.77" cy="120.31" r="5.99"/><circle class="cls-2" cx="290.28" cy="120.31" r="5.99"/><circle class="cls-2" cx="253.26" cy="136.64" r="5.99"/><circle class="cls-2" cx="271.77" cy="136.64" r="5.99"/><circle class="cls-2" cx="290.28" cy="136.64" r="5.99"/><circle class="cls-2" cx="253.26" cy="152.97" r="5.99"/><circle class="cls-2" cx="271.77" cy="152.97" r="5.99"/><circle class="cls-2" cx="290.28" cy="152.97" r="5.99"/><circle class="cls-2" cx="271.77" cy="169.3" r="5.99"/><path class="cls-2" d="M1587.24,789.35a12.53,12.53,0,0,1-12.52-12.52V733.28a12.54,12.54,0,0,1,12.52-12.52,2.73,2.73,0,1,1,0,5.45,7.08,7.08,0,0,0-7.07,7.07v43.55a7.08,7.08,0,0,0,7.07,7.08,2.72,2.72,0,1,1,0,5.44Z" transform="translate(-1371.54 -629.85)"/><path class="cls-2" d="M1566.56,785A12.53,12.53,0,0,1,1554,772.48V737.64a12.53,12.53,0,0,1,12.52-12.52,2.72,2.72,0,1,1,0,5.44,7.09,7.09,0,0,0-7.08,7.08v34.84a7.09,7.09,0,0,0,7.08,7.08,2.72,2.72,0,1,1,0,5.44Z" transform="translate(-1371.54 -629.85)"/><path class="cls-2" d="M1545.87,778.47A12.54,12.54,0,0,1,1533.35,766V744.17a12.54,12.54,0,0,1,12.52-12.52,2.72,2.72,0,0,1,0,5.44,7.09,7.09,0,0,0-7.08,7.08V766a7.08,7.08,0,0,0,7.08,7.07,2.73,2.73,0,0,1,0,5.45Z" transform="translate(-1371.54 -629.85)"/><path class="cls-2" d="M1699.39,789.35a2.72,2.72,0,0,1,0-5.44,7.08,7.08,0,0,0,7.07-7.08V733.28a7.08,7.08,0,0,0-7.07-7.07,2.73,2.73,0,0,1,0-5.45,12.54,12.54,0,0,1,12.52,12.52v43.55A12.53,12.53,0,0,1,1699.39,789.35Z" transform="translate(-1371.54 -629.85)"/><path class="cls-2" d="M1720.07,785a2.72,2.72,0,0,1,0-5.44,7.09,7.09,0,0,0,7.08-7.08V737.64a7.09,7.09,0,0,0-7.08-7.08,2.72,2.72,0,0,1,0-5.44,12.53,12.53,0,0,1,12.53,12.52v34.84A12.54,12.54,0,0,1,1720.07,785Z" transform="translate(-1371.54 -629.85)"/><path class="cls-2" d="M1740.76,778.47a2.73,2.73,0,0,1,0-5.45,7.08,7.08,0,0,0,7.08-7.07V744.17a7.09,7.09,0,0,0-7.08-7.08,2.72,2.72,0,0,1,0-5.44,12.53,12.53,0,0,1,12.52,12.52V766A12.53,12.53,0,0,1,1740.76,778.47Z" transform="translate(-1371.54 -629.85)"/><text class="cls-3" transform="translate(190.95 295.23)">Phone</text></svg>